<?xml version="1.0" encoding="UTF-8"?>
<svg id="Layer_1" data-name="Layer 1" xmlns="http://www.w3.org/2000/svg" viewBox="0 0 300 300">
  <defs>
    <style>
      .cls-1 {
        fill: #263725;
      }

      .cls-2 {
        fill: none;
        stroke: #263725;
        stroke-miterlimit: 10;
        stroke-width: .25px;
      }
    </style>
  </defs>
  <path class="cls-1" d="M106.7,200.12c1.74,1.74,3.56,3.36,5.45,4.86h-45.58l22.56-39.68c1.9,12.75,7.76,25.01,17.57,34.82Z"/>
  <path class="cls-1" d="M150.8,56.82l23.57,41.45c-15.08-6.14-32.06-6.14-47.14,0l23.57-41.45Z"/>
  <path class="cls-1" d="M235.02,204.98h-45.58c1.89-1.49,3.71-3.11,5.45-4.86,9.81-9.81,15.66-22.07,17.57-34.82l22.56,39.68Z"/>
  <circle class="cls-2" cx="150.12" cy="153.09" r="38.14"/>
  <ellipse class="cls-1" cx="188.26" cy="154.08" rx="4.12" ry="4.22"/>
  <ellipse class="cls-1" cx="150.7" cy="154.08" rx="8.06" ry="8.27"/>
  <ellipse class="cls-1" cx="112.76" cy="154.08" rx="4.05" ry="4.15"/>
  <circle class="cls-2" cx="150.85" cy="153.84" r="52.55"/>
  <circle class="cls-1" cx="150.7" cy="101.29" r="4.21"/>
  <circle class="cls-1" cx="203.68" cy="154.08" r="4.21"/>
  <circle class="cls-1" cx="98.3" cy="154.08" r="4.21"/>
  <circle class="cls-1" cx="150.7" cy="206.67" r="4.21"/>
</svg>
